<svg xmlns="http://www.w3.org/2000/svg" version="1.1" width="600px" height="600px" viewBox="0 0 200 200" style="overflow:hidden!important;"><g id="svga-group-wrapper"><g id="svga-group-backs-single"><path id="SvgjsPath3825" d="M0 0h200v200H0V0z" fill="#ecf0f1" stroke-width="none" opacity="1"></path></g><g id="svga-group-humanwrap-move" transform="matrix(1,0,0,1,0,0)"><g id="svga-group-humanwrap"><g id="svga-group-hair-back-move" transform="matrix(1,0,0,1,0,0)"><g id="svga-group-hair-back"></g></g><g id="svga-group-humanbody-back"><path id="SvgjsPath3776" d="m170 180.3-27.3-6.9-18-9.9-1.5-28.2H76.8l-1.5 28.2-18 9.9-27.3 6.9-9.1 19.7-3 20h164.2l-3-20z" fill="#f0c7b1" stroke-width="none" opacity="1" stroke="none"></path><path id="SvgjsPath3777" d="m76.8 135.3-1.5 28.2-18 9.9-27.3 6.9-9.1 19.7-3 20h14.6v-20l2.7-17.7 23.8-6.4 24.7-8.3 3.5-32.3z" fill="#d19271" stroke-width="none" opacity="1" stroke="none"></path></g><g id="svga-group-chinshadow-single"><path id="SvgjsPath3772" d="m121.5 149.1 2.2-3.8-.5-10H76.8l-.8 15.9 13.8 9.6h14.8z" fill="#c27b55" stroke-width="none" opacity="1" stroke="none"></path></g><g id="svga-group-humanbody-front"><path id="SvgjsPath3778" d="m92.8 168.3 2 7.9 6.9 4.6s-8.5-3-8.7-3.6c-.2-.6-.2-8.9-.2-8.9z" fill="#d19271" stroke-width="none" opacity="1" stroke="none"></path></g><g id="svga-group-clothes-single"><path id="SvgjsPath3668" d="m183.7 220-3.2-20.5-9.6-20.1-27.7-7-17.6-9.7-1-1.3.1 2.1.7 2.9-8.8 10.2-9.4 4.2H92.8l-9.4-4.2-8.8-10.2.7-2.9.1-2.1-1 1.3-17.6 9.7-27.8 7-9.5 20.1-3.2 20.5z" fill="#386e77" stroke-width="none" opacity="1"></path><path id="SvgjsPath3669" d="m72 164.1-1.1 3.8 7.9 11.6 13.9 6.6 9 1.2h-8.9l-14-6.5-8.7-12.5 1.5-4 .4-.2zM29.6 207l3.5-14.5 2.9.7 2.5 9.3-1.6-9.4-3.3-8.9 27.6-5.8 12-6.2 4.2-2.5-2.8-3.2.7-2.9.1-2.1-1 1.3-17.7 9.7-27.7 7-9.6 20.1-3.1 20.4h13.2l.1-13zm13.6 8.7-1.8-6.5.2 10.8h2.1l-.5-4.3zm84.8-51.6 1.1 3.8-7.9 11.6-13.9 6.6-9 1.2h8.9l14-6.5 8.7-12.5-1.5-4-.4-.2zm28.8 51.6 1.8-6.5-.2 10.8h-2.1l.5-4.3z" fill="#265e68" stroke-width="none" opacity="1"></path></g><g id="svga-group-head" transform="matrix(1,0,0,1,0,0)"><g id="svga-group-ears-left-move" transform="matrix(1,0,0,1,0,0)"><g id="svga-group-ears-left"><path id="SvgjsPath3678" d="M63.1 91.8s-6-.7-10.6-3.7c0 0-3.5 9.4-4 14.4 0 0 6.7 13 10 18.5 0 0 5.2-.7 6.3-1.4l1.4-8.4-3.1-19.4z" fill="#f0c7b1" stroke-width="none" opacity="1" stroke="none"></path><path id="SvgjsPath3679" d="M53.3 90c-.2-.4-.8-1.9-.8-1.9 5.2.4 10.7 1.4 10.7 1.4l3 21.6-1.4 8.4c-1.1.7-6.3 1.4-6.3 1.4-.6-1-1.3-2.3-2.1-3.6l2.6 1 3-1.6s.7-11.2.5-11.5c-.1-.3-9-14.8-9.2-15.2z" fill="#e1ac8f" stroke-width="none" opacity="1" stroke="none"></path><path id="SvgjsPath3680" d="m50.3 100.9 2.8-5.5 5.2 6.8 2.2 9.5-1.4 1.9-4.3-7.6 1-4.7-2.6-4z" fill="#d19271" stroke-width="none" opacity="1" stroke="none"></path></g></g><g id="svga-group-ears-right-move" transform="matrix(1,0,0,1,0,0)"><g id="svga-group-ears-right"><path id="SvgjsPath3681" d="M136.9 91.8s6-.7 10.6-3.7c0 0 3.5 9.4 4 14.4 0 0-6.7 13-10 18.5 0 0-5.2-.7-6.3-1.4l-1.4-8.4 3.1-19.4z" fill="#f0c7b1" stroke-width="none" opacity="1" stroke="none"></path><path id="SvgjsPath3682" d="M146.7 90c.2-.4.8-1.9.8-1.9-5.2.4-10.7 1.4-10.7 1.4l-3 21.6 1.4 8.4c1.1.7 6.3 1.4 6.3 1.4.6-1 1.3-2.3 2.1-3.6l-2.6 1-3-1.6s-.7-11.2-.5-11.5c.1-.3 9-14.8 9.2-15.2z" fill="#e1ac8f" stroke-width="none" opacity="1" stroke="none"></path><path id="SvgjsPath3683" d="m149.7 100.9-2.8-5.5-5.2 6.8-2.2 9.5 1.4 1.9 4.3-7.6-1-4.7 2.6-4z" fill="#d19271" stroke-width="none" opacity="1" stroke="none"></path></g></g><g id="svga-group-faceshape-wrap"><g id="svga-group-faceshape-single"><path id="SvgjsPath3758" d="M138.1 60c-6.9-11.6-19.7-19.5-19.7-19.5-7.2-1.5-18.4-2.3-18.4-2.3s-11.1.8-18.4 2.3c0 0-12.8 7.9-19.7 19.5 0 0-5.1 14.5-5.3 24.8l4.9 33.9 14.2 24.8 16.9 11.7h14.9l16.9-11.7 14.2-24.8 4.9-33.9c-.3-10.3-5.4-24.8-5.4-24.8z" fill="#f0c7b1" stroke-width="none" opacity="1" stroke="none"></path><path id="SvgjsPath3759" d="m92.7 152.7-14.6-12.3s-11.4-20.9-11.8-21.7c-.4-.9-5-34.3-5-34.3.2-4.8 4.5-21.5 5-22.2 2.1-3.2 16.5-18 16.5-18l17.1-4.1 18.5.4c-7.2-1.5-18.4-2.3-18.4-2.3s-11.1.8-18.4 2.3c0 0-12.8 7.9-19.7 19.5 0 0-5.1 14.5-5.3 24.8l4.9 33.9 14.2 24.8 16.9 11.7h14.9l16.9-11.7-18 10.4-13.7-1.2z" fill="#d19271" stroke-width="none" opacity="1" stroke="none"></path></g></g><g id="svga-group-mouth-single-move" transform="matrix(1,0,0,1,0,0)"><g id="svga-group-mouth-single"><path id="SvgjsPath3846" d="m91.05 134.5 3.1 2.2 5.6-.2 6.6.6 2.7-2-2.9 1-6.5-.5-5.5.2z" fill="#d19271" stroke-width="none" opacity="1" transform="translate(0 2)" stroke="none"></path><path id="SvgjsPath3847" d="m89.17 128.58-1.77 2.59 7.88-2.14 2.49 1.51 3.83.27 2.37-1.45 9.7 2.06-1.77-1.92-8.85-5.39-3.26.99-2.89-1.13z" fill="#da7c87" stroke-width="none" opacity="1" transform="translate(0 2)" stroke="none"></path><path id="SvgjsPath3848" d="m85.3 129.9 2.3 1.9 7.5-2.4 2.8 1.6 3.7.1 2.6-1.5 9.5 2.3 1.87-1.35-2.07.45-9.6-2.7-2.5 1.9-3.5-.1-2.7-2-7.8 2.7z" fill="#cb5f6c" stroke-width="none" opacity="1" transform="translate(0 2)" stroke="none"></path></g></g><g id="svga-group-eyes-left-move" transform="matrix(1,0,0,1,0,0)"><g id="svga-group-eyes-left"><g id="svga-group-eyesback-left"><path id="SvgjsPath3718" d="m90.8 100-2.5-7L77 89.8 69.6 92l5.6 8.3z" fill="#ffffff" stroke-width="none" opacity="1"></path></g><g id="svga-group-eyesiriswrapper-left" transform="matrix(1,0,0,1,0,0)"><g id="svga-group-eyesiriscontrol-left" transform="matrix(1,0,0,1,0,0)"><g id="svga-group-eyesiris-left"><path id="SvgjsPath3793" d="m82.2 100.2-5.5-2-1-5.8 4.5-3.8 5.5 2.1 1 5.7z" fill="#4e60a3" stroke-width="none" opacity="1"></path><path id="SvgjsPath3794" d="m78.2 95.4.6-3.1 3-1 2.4 2.1-.7 3.1-3 1z" fill="#000000" stroke-width="none" opacity="1"></path><path id="SvgjsPath3795" d="m78 91.7 2.2 2.1.6-.4-1.2-2.7z" fill="#ffffff" stroke-width="none" opacity="1"></path><path id="SvgjsPath3796" d="m82.1 96.4.5 1 .8-.4-.4-1z" fill="#ffffff" stroke-width="none" opacity="1"></path></g></g></g><g id="svga-group-eyesfront-left"><path id="SvgjsPath3726" d="M67.1 89.3v11.9l7.9 8.4h11.2l7.9-8.4V89.3l-7.9-8.4H75l-7.9 8.4zm2.5 2.7 7.4-2.2L88.3 93l2.5 7-15.6.3-5.6-8.3z" fill="#f0c7b1" stroke-width="none" opacity="1" stroke="none"></path><path id="SvgjsPath3727" d="m91.2 101.3-2.1-8.9-6.5-2.6-6.2-1-8.4 3.7 9-2.5 11 3.3z" fill="#000000" stroke-width="none" opacity="1" stroke="none"></path></g></g></g><g id="svga-group-eyes-right-move" transform="matrix(1,0,0,1,0,0)"><g id="svga-group-eyes-right"><g id="svga-group-eyesback-right"><path id="SvgjsPath3719" d="m109.2 100 2.5-7 11.3-3.2 7.4 2.2-5.6 8.3z" fill="#ffffff" stroke-width="none" opacity="1"></path></g><g id="svga-group-eyesiriswrapper-right" transform="matrix(1,0,0,1,0,0)"><g id="svga-group-eyesiriscontrol-right" transform="matrix(1,0,0,1,0,0)"><g id="svga-group-eyesiris-right"><path id="SvgjsPath3797" d="m119.8 100.2-5.5-2-1-5.8 4.5-3.8 5.5 2.1 1 5.7z" fill="#4e60a3" stroke-width="none" opacity="1"></path><path id="SvgjsPath3798" d="m115.8 95.4.7-3.1 3-1 2.3 2.1-.6 3.1-3 1z" fill="#000000" stroke-width="none" opacity="1"></path><path id="SvgjsPath3799" d="m115.7 91.7 2.2 2.1.6-.4-1.2-2.7z" fill="#ffffff" stroke-width="none" opacity="1"></path><path id="SvgjsPath3800" d="m119.7 96.4.6 1 .8-.4-.4-1z" fill="#ffffff" stroke-width="none" opacity="1"></path></g></g></g><g id="svga-group-eyesfront-right"><path id="SvgjsPath3728" d="M125 80.8h-11.2l-7.9 8.4v11.9l7.9 8.4H125l7.9-8.4V89.3l-7.9-8.5zm-.2 19.5-15.6-.3 2.5-7 11.3-3.2 7.4 2.2-5.6 8.3z" fill="#f0c7b1" stroke-width="none" opacity="1" stroke="none"></path><path id="SvgjsPath3731" d="m108.8 101.3 2.1-8.9 6.5-2.6 6.2-1 8.4 3.7-9-2.5-11 3.3z" fill="#000000" stroke-width="none" opacity="1" stroke="none"></path></g></g></g><g id="svga-group-facehighlight-single"></g><g id="svga-group-eyebrows-left-move" transform="matrix(1,0,0,1,0,0)"><g id="svga-group-eyebrows-left-rotate" transform="matrix(1,1.7453292519943295e-9,-1.7453292519943295e-9,1,1.4451326535436237e-7,-1.3849188462700113e-7)"><g id="svga-group-eyebrows-left"><path id="SvgjsPath3646" d="M74.2 77.6 71 79l-5 9 8.5-4.6 17.3 3.7.9-6z" fill="#2a232b" stroke-width="none" opacity="1"></path><path id="SvgjsPath3647" d="m87.9 84-1.2-4-1.7-.4 2.9 4.4zM73 78.2l5.6 4.6-4.4-5.2-1.2.6zm6.9.5 3.8 5-1.9-4.6-1.9-.4zm-11.7 5.4 2.7-1.5-2.1.5-.6 1zm14.7-4.8 1.7 1.9-.5-1.7-1.2-.2zm-12.4.7 3.8.8L71 79l-.5 1zm16.6.1 3.5 5.2-1.4-4.7-2.1-.5z" fill="#3a353a" stroke-width="none" opacity="1"></path></g></g></g><g id="svga-group-eyebrows-right-move" transform="matrix(1,0,0,1,0,0)"><g id="svga-group-eyebrows-right-rotate" transform="matrix(1,1.7453292519943295e-9,-1.7453292519943295e-9,1,1.4451326535436237e-7,-2.1057397248114285e-7)"><g id="svga-group-eyebrows-right"><path id="SvgjsPath3648" d="m107.3 81.1.9 6 17.3-3.7L134 88l-5-9-3.2-1.4z" fill="#2a232b" stroke-width="none" opacity="1"></path><path id="SvgjsPath3649" d="m115 79.6-1.7.3-1.2 4 2.9-4.3zm10.8-2-4.4 5.2 5.6-4.6-1.2-.6zm-7.6 1.5-1.9 4.6 3.8-5-1.9.4zm12.9 4-2.1-.5 2.7 1.5-.6-1zm-15.2-3.6-.5 1.7 1.7-1.9-1.2.2zM129 79l-3.2 1.8 3.8-.8-.6-1zm-18.2 1.5-1.4 4.7 3.5-5.2-2.1.5z" fill="#3a353a" stroke-width="none" opacity="1"></path></g></g></g><g id="svga-group-beardwrap"><g id="svga-group-beard-single-move" transform="matrix(1,0,0,1,0,0)"><g id="svga-group-beard-single"></g></g></g><g id="svga-group-mustache-single-move" transform="matrix(1,0,0,1,0,0)"><g id="svga-group-mustache-single"></g></g><g id="svga-group-nose-single-move" transform="matrix(1,0,0,1,0,0)"><g id="svga-group-nose-single"><path id="SvgjsPath3830" d="m96.12 99.91-.45 6.4-5.78 8.87 2.98 2.25 1.63-2.02 4.32 3.82h2.41l4.27-3.82 1.57 1.96 3.15-2.19-5.79-8.92-.56-6.46-3.82-1.63z" fill="#f0c7b1" stroke-width="none" opacity="1" transform="translate(0 1)" stroke="none"></path><path id="SvgjsPath3831" d="m104.86 106.44-1.95-15.67 1.1 14.55-.86-.22 6.58 10.06-2.34 1.73-1.28-1.51.28-1.34-5.15 4.47h-2.4l-5.15-4.47.29 1.34-1.29 1.51-2.34-1.73 6.59-10.06-.86.22 1.33-22.81-2.19 23.93-5.82 8.83 3.81 2.79 1.44-2.01 4.19 3.91h2.4l4.2-3.91 1.43 2.01 3.81-2.79z" fill="#d19271" stroke-width="none" opacity="1" transform="translate(0 1)" stroke="none"></path><path id="SvgjsPath3832" d="m96.15 113.17 2.37 1.46 3.1.06 2.55-1.16-.3-1.76-3.59-.6-3.94.66z" fill="#f8d5c3" stroke-width="none" opacity="1" transform="translate(0 1)" stroke="none"></path></g></g><g id="svga-group-hair-front"><path id="SvgjsPath3869" d="M143.01 63.98c-2.54-5.83-19.15-23.84-19.15-23.84L100 36.33l-23.86 3.8s-16.61 18-19.15 23.84l-.93 24.3 4.58 4.03h2.56l.73-24.9 17.21-16.84 7.32 8.24L100 60.55l11.54-1.75 7.32-8.24 17.21 16.84.73 24.9h2.56l4.58-4.03-.93-24.29z" fill="#1b141c" stroke-width="none" opacity="1" stroke="none"></path><path id="SvgjsPath3870" d="M123.86 40.14 100 36.33l-9.09 1.45-11.22 4.57s8.72 13.88 9.72 13.88c.99 0 12.49 1.78 13.48 1.59.99-.2 8.33-.99 8.33-.99l8.33-7.53 18.04 18.24.92 24.77h.86l4.58-4.03-.93-24.3c-2.55-5.84-19.16-23.84-19.16-23.84z" fill="#2a232b" stroke-width="none" opacity="1" stroke="none"></path></g><g id="svga-group-glasses-single-move" transform="matrix(1,0,0,1,0,0)"><g id="svga-group-glasses-single"></g></g></g></g></g><rect id="svga-credit-rect" width="200" height="15" x="0" y="185" fill="#ecf0f1" opacity="0.5" style="display: none;"></rect><text id="svga-credit-text" font-family="Avenir Next, Roboto, Helvetica, Arial, sans-serif" font-size="10px" text-anchor="start" font-weight="400" size="10px" anchor="start" weight="400" fill="#333333" x="33.40447998046875" y="182.60824704170227" style="display: none;"><tspan id="SvgjsTspan3640" dy="13" x="33.40447998046875">Created on AvatarMaker.com</tspan></text></g><defs id="SvgjsDefs3587"></defs></svg>