<svg width="150" height="244" viewBox="0 0 150 244" fill="none" xmlns="http://www.w3.org/2000/svg">
<g clip-path="url(#clip0_34_645)">
<path d="M73.1602 128.243C85.0421 128.243 94.6742 118.611 94.6742 106.729C94.6742 94.8475 85.0421 85.2153 73.1602 85.2153C61.2784 85.2153 51.6462 94.8475 51.6462 106.729C51.6462 118.611 61.2784 128.243 73.1602 128.243Z" fill="#F4F5FE"/>
<path d="M20.836 159.079C20.3802 158.861 19.9916 158.523 19.7109 158.103C19.4302 157.683 19.2678 157.195 19.2408 156.69L18.9278 150.765C18.8892 150.02 19.1478 149.29 19.6468 148.735C20.1458 148.181 20.8444 147.847 21.5894 147.807L70.9703 145.198C71.7154 145.159 72.4453 145.418 72.9999 145.917C73.5546 146.416 73.8886 147.114 73.9288 147.859L74.2418 153.784C74.2803 154.529 74.0217 155.259 73.5228 155.814C73.0238 156.368 72.3253 156.702 71.5803 156.743L22.1993 159.351C21.7292 159.377 21.2603 159.283 20.836 159.079Z" fill="#F4F5FE"/>
<path d="M54.8771 159.195C54.3966 158.963 53.9919 158.599 53.7098 158.146C53.4277 157.693 53.2799 157.169 53.2834 156.636L53.2249 145.481C53.2275 145.111 53.3031 144.745 53.4472 144.405C53.5912 144.064 53.801 143.755 54.0645 143.496C54.328 143.237 54.6401 143.032 54.9828 142.893C55.3256 142.754 55.6923 142.684 56.062 142.688L78.5897 144.674C79.186 144.677 79.9388 145.601 80.5439 146.343C80.7337 146.576 80.8977 146.777 81.0176 146.898C81.0701 146.952 81.1201 147.007 81.1676 147.064C81.598 147.576 81.8311 148.226 81.8251 148.895L81.7758 154.828C81.7687 155.574 81.466 156.286 80.934 156.81C80.4021 157.333 79.6845 157.624 78.9384 157.618L56.0913 159.472C55.671 159.471 55.2563 159.376 54.8771 159.195Z" fill="#2F2E41"/>
<path d="M68.9664 243.343H63.0334C62.2873 243.342 61.5721 243.045 61.0445 242.518C60.517 241.99 60.2203 241.275 60.2195 240.529V190.275C60.2203 189.529 60.5171 188.814 61.0446 188.286C61.5721 187.759 62.2873 187.462 63.0334 187.461H68.9664C69.7125 187.462 70.4277 187.759 70.9552 188.286C71.4827 188.814 71.7795 189.529 71.7803 190.275V240.529C71.7795 241.275 71.4827 241.99 70.9552 242.518C70.4277 243.045 69.7125 243.342 68.9664 243.343Z" fill="#F4F5FE"/>
<path d="M84.6161 243.343H78.683C77.937 243.342 77.2217 243.045 76.6942 242.518C76.1667 241.99 75.87 241.275 75.8691 240.529V190.275C75.87 189.529 76.1667 188.814 76.6942 188.286C77.2218 187.759 77.937 187.462 78.683 187.461H84.6161C85.3621 187.462 86.0773 187.759 86.6049 188.286C87.1324 188.814 87.4291 189.529 87.43 190.275V240.529C87.4291 241.275 87.1324 241.99 86.6049 242.518C86.0773 243.045 85.3621 243.342 84.6161 243.343Z" fill="#F4F5FE"/>
<path d="M76.024 114.703L76.0464 113.899C74.5508 113.858 73.2321 113.764 72.2413 113.04C71.9604 112.823 71.7295 112.548 71.5643 112.234C71.3991 111.92 71.3035 111.574 71.284 111.219C71.2666 111.003 71.2994 110.785 71.3798 110.584C71.4601 110.382 71.5859 110.201 71.7474 110.056C72.4052 109.5 73.4635 109.68 74.2349 110.034L74.9001 110.339L73.6245 101.017L72.828 101.126L73.913 109.056C73.4689 108.891 72.9905 108.84 72.5216 108.907C72.0527 108.975 71.6082 109.159 71.2285 109.442C70.9731 109.665 70.7727 109.944 70.6429 110.257C70.5132 110.57 70.4577 110.909 70.4806 111.248C70.5041 111.724 70.6314 112.189 70.8536 112.611C71.0759 113.033 71.3876 113.401 71.7671 113.689C73.0401 114.619 74.6946 114.666 76.024 114.703Z" fill="#2F2E41"/>
<path d="M68.8888 101.81H64.5588V102.614H68.8888V101.81Z" fill="#2F2E41"/>
<path d="M82.5563 101.81H78.2263V102.614H82.5563V101.81Z" fill="#2F2E41"/>
<path d="M97.6707 178.377L77.8134 138.779H78.0934C78.7861 138.778 79.4503 138.502 79.9401 138.013C80.43 137.523 80.7055 136.859 80.7063 136.166V135.362C80.7055 134.669 80.43 134.005 79.9401 133.515C79.4503 133.025 78.7861 132.75 78.0934 132.749H69.2497C68.557 132.75 67.8928 133.025 67.403 133.515C66.9131 134.005 66.6376 134.669 66.6368 135.362V136.166C66.6388 136.805 66.8755 137.421 67.3018 137.897C67.7282 138.373 68.3145 138.676 68.9495 138.748L49.035 178.399C48.0879 180.284 47.639 182.381 47.731 184.489C47.823 186.597 48.4528 188.647 49.5606 190.443C50.6683 192.239 52.2172 193.721 54.0598 194.75C55.9024 195.778 57.9774 196.318 60.0876 196.318H86.5972C88.71 196.318 90.7878 195.778 92.6329 194.748C94.478 193.719 96.0291 192.234 97.1389 190.436C98.2486 188.639 98.88 186.587 98.9731 184.476C99.0662 182.365 98.6178 180.265 97.6707 178.377Z" fill="#2F2E41"/>
<path d="M74.0895 147.741L118.882 126.789C119.558 126.474 120.331 126.44 121.033 126.694C121.734 126.948 122.306 127.471 122.623 128.146L125.136 133.52C125.452 134.196 125.486 134.97 125.232 135.671C124.977 136.373 124.455 136.944 123.78 137.261L78.9876 158.212C78.3115 158.528 77.5379 158.562 76.8366 158.308C76.1352 158.053 75.5634 157.531 75.2467 156.856L72.733 151.482C72.5756 151.147 72.4861 150.785 72.4698 150.416C72.4534 150.046 72.5105 149.678 72.6376 149.331C72.737 149.055 72.8784 148.797 73.0569 148.566C73.3303 148.212 73.6843 147.929 74.0895 147.741Z" fill="#F4F5FE"/>
<path d="M72.5535 147.611L92.2737 135.857C92.946 135.534 93.7187 135.492 94.4225 135.738C95.1262 135.984 95.7036 136.499 96.028 137.171L101.001 147.162C101.162 147.496 101.255 147.859 101.275 148.229C101.295 148.6 101.242 148.97 101.118 149.32C100.995 149.669 100.803 149.991 100.555 150.266C100.306 150.542 100.005 150.765 99.6703 150.924L78.6043 159.061C78.0526 159.327 76.9697 158.83 76.0995 158.431C75.8266 158.306 75.5909 158.198 75.4298 158.142C75.359 158.117 75.2896 158.089 75.2221 158.059C74.6098 157.789 74.1142 157.309 73.8246 156.705L71.253 151.359C71.0267 150.887 70.9359 150.362 70.9906 149.842C71.0453 149.322 71.2434 148.828 71.5628 148.414C71.8258 148.072 72.1651 147.798 72.5535 147.611Z" fill="#2F2E41"/>
<path d="M56.168 95.5395C55.8802 95.5385 55.6044 95.4237 55.401 95.2201C55.1975 95.0166 55.0829 94.7407 55.0821 94.4529C55.0809 94.3674 55.0905 94.2821 55.1107 94.199L60.7339 69.4302C60.7765 69.2437 60.8673 69.0716 60.9973 68.9312C61.1273 68.7908 61.2918 68.6869 61.4745 68.6301C61.6572 68.5733 61.8516 68.5654 62.0383 68.6073C62.225 68.6493 62.3974 68.7394 62.5383 68.8689L81.1809 86.1323C81.3211 86.2624 81.4247 86.427 81.4813 86.6096C81.538 86.7923 81.5457 86.9866 81.5037 87.1732C81.4618 87.3598 81.3716 87.5321 81.2422 87.6729C81.1128 87.8137 80.9486 87.9181 80.7663 87.9756L56.4948 95.4904C56.3889 95.5228 56.2788 95.5393 56.168 95.5395Z" fill="#3F3D56"/>
<path d="M71.4161 77.4326L59.7061 75.1023L59.8903 74.2891L70.2429 76.3473L71.4161 77.4326Z" fill="#F4F5FE"/>
<path d="M80.6369 85.9744L58.2476 81.5192L58.4318 80.7019L79.4631 84.8844L80.6369 85.9744Z" fill="#F4F5FE"/>
<path d="M72.6273 90.2327L70.9467 90.7522L56.7932 87.9357L56.9775 87.1184L72.6273 90.2327Z" fill="#F4F5FE"/>
<path d="M127.218 95.9181C129.169 95.9181 130.751 94.336 130.751 92.3843C130.751 90.4326 129.169 88.8505 127.218 88.8505C125.266 88.8505 123.684 90.4326 123.684 92.3843C123.684 94.336 125.266 95.9181 127.218 95.9181Z" fill="#F4F5FE"/>
<path d="M81.7827 5.04832C83.1768 5.04832 84.3069 3.91822 84.3069 2.52416C84.3069 1.13011 83.1768 0 81.7827 0C80.3887 0 79.2585 1.13011 79.2585 2.52416C79.2585 3.91822 80.3887 5.04832 81.7827 5.04832Z" fill="#FF6584"/>
<path d="M26.7561 83.2973C28.1501 83.2973 29.2803 82.1672 29.2803 80.7732C29.2803 79.3791 28.1501 78.249 26.7561 78.249C25.362 78.249 24.2319 79.3791 24.2319 80.7732C24.2319 82.1672 25.362 83.2973 26.7561 83.2973Z" fill="#FF6584"/>
<path d="M115.102 74.7152C116.496 74.7152 117.626 73.5851 117.626 72.191C117.626 70.797 116.496 69.6669 115.102 69.6669C113.708 69.6669 112.578 70.797 112.578 72.191C112.578 73.5851 113.708 74.7152 115.102 74.7152Z" fill="#F4F5FE"/>
<path d="M38.3672 109.044C39.7612 109.044 40.8913 107.914 40.8913 106.52C40.8913 105.126 39.7612 103.995 38.3672 103.995C36.9731 103.995 35.843 105.126 35.843 106.52C35.843 107.914 36.9731 109.044 38.3672 109.044Z" fill="#F4F5FE"/>
<path d="M118.131 116.111C119.525 116.111 120.655 114.981 120.655 113.587C120.655 112.193 119.525 111.063 118.131 111.063C116.737 111.063 115.606 112.193 115.606 113.587C115.606 114.981 116.737 116.111 118.131 116.111Z" fill="#E6E6E6"/>
<path d="M95.9182 26.2513C97.3123 26.2513 98.4424 25.1212 98.4424 23.7272C98.4424 22.3331 97.3123 21.203 95.9182 21.203C94.5241 21.203 93.394 22.3331 93.394 23.7272C93.394 25.1212 94.5241 26.2513 95.9182 26.2513Z" fill="#CCCCCC"/>
<path d="M0.513287 54.0053C3.15634 54.1718 5.72231 54.9623 8.00086 56.312C10.2794 57.6617 12.2057 59.5322 13.6218 61.77C14.0186 62.4045 14.5367 63.1016 14.262 63.8825C14.1662 64.182 13.9718 64.44 13.7104 64.6146C13.449 64.7892 13.1361 64.87 12.8229 64.8437C12.4323 64.7596 12.0803 64.5494 11.821 64.2454C11.5618 63.9414 11.4098 63.5606 11.3884 63.1617C11.367 62.7628 11.4775 62.3679 11.7028 62.038C11.928 61.7081 12.2556 61.4614 12.6349 61.3361C14.4681 60.5542 16.3175 61.7626 17.8107 62.727C21.2131 64.9246 24.9553 66.912 29.0781 67.1624C32.8925 67.3941 36.9829 65.8985 39.1046 62.5906C39.4758 62.0119 38.5542 61.4771 38.1848 62.0529C36.0806 65.3335 31.8269 66.5118 28.1283 66.0047C25.9243 65.6569 23.796 64.9343 21.8358 63.8683C20.8192 63.3408 19.8332 62.7559 18.8672 62.1412C17.948 61.4997 16.9736 60.9412 15.9556 60.472C14.2579 59.7746 12.0103 59.8291 10.8244 61.4348C9.71803 62.9328 10.5731 65.4267 12.4235 65.8479C12.8295 65.9279 13.2489 65.9059 13.6443 65.784C14.0396 65.662 14.3985 65.4438 14.6888 65.149C14.9791 64.8542 15.1917 64.492 15.3076 64.0948C15.4234 63.6976 15.4389 63.2778 15.3526 62.8732C15.168 61.9911 14.5037 61.1278 13.9896 60.4067C12.4447 58.2335 10.432 56.4345 8.09971 55.1423C5.76741 53.8501 3.17493 53.0976 0.513225 52.9401C-0.171968 52.9062 -0.170181 53.9715 0.513225 54.0053L0.513287 54.0053Z" fill="#CCCCCC"/>
<path d="M149.798 86.2493C148.027 85.1092 146.551 83.5656 145.492 81.745C144.433 79.9244 143.82 77.8787 143.704 75.7756C143.674 75.1812 143.585 74.4962 144.078 74.0603C144.261 73.8895 144.496 73.7856 144.745 73.7657C144.994 73.7458 145.243 73.811 145.45 73.9507C145.689 74.1604 145.852 74.4429 145.914 74.7545C145.976 75.0661 145.934 75.3895 145.795 75.6748C145.655 75.9601 145.425 76.1915 145.141 76.3334C144.856 76.4752 144.533 76.5195 144.221 76.4595C142.645 76.292 141.829 74.7358 141.166 73.4872C139.655 70.6422 137.826 67.8114 135.06 66.0394C132.501 64.3999 129.08 63.853 126.324 65.3279C125.842 65.5859 126.275 66.3146 126.755 66.0578C129.488 64.5951 132.899 65.4257 135.271 67.2115C136.667 68.3074 137.865 69.6342 138.813 71.1344C139.314 71.8948 139.772 72.6832 140.205 73.4846C140.595 74.2863 141.055 75.052 141.58 75.7724C142.489 76.9148 144.071 77.7482 145.517 77.0927C145.839 76.926 146.118 76.6862 146.331 76.3925C146.544 76.0987 146.685 75.7593 146.743 75.4012C146.802 75.0431 146.775 74.6764 146.667 74.3303C146.558 73.9842 146.37 73.6684 146.117 73.408C145.866 73.1951 145.566 73.0477 145.244 72.9792C144.923 72.9106 144.589 72.923 144.273 73.0153C143.957 73.1075 143.669 73.2766 143.434 73.5076C143.2 73.7385 143.027 74.024 142.93 74.3385C142.781 75.0779 142.778 75.8392 142.92 76.5798C143.151 78.6879 143.851 80.7175 144.97 82.519C146.089 84.3205 147.598 85.8481 149.385 86.9892C149.848 87.2783 150.26 86.5378 149.798 86.2494L149.798 86.2493Z" fill="#CCCCCC"/>
<path d="M62.6959 16.3594C60.5938 16.227 58.5529 15.5983 56.7407 14.5248C54.9284 13.4513 53.3964 11.9637 52.2701 10.1838C51.9545 9.67919 51.5424 9.12469 51.7609 8.50361C51.8371 8.26547 51.9917 8.06019 52.1996 7.92133C52.4075 7.78248 52.6564 7.71826 52.9055 7.73917C53.2161 7.80604 53.4961 7.97324 53.7023 8.215C53.9085 8.45676 54.0294 8.75964 54.0464 9.07692C54.0634 9.3942 53.9755 9.70826 53.7964 9.97067C53.6172 10.2331 53.3567 10.4292 53.055 10.5289C51.597 11.1508 50.126 10.1897 48.9384 9.42264C46.2324 7.67482 43.256 6.09417 39.9769 5.89498C36.9431 5.71072 33.6898 6.90025 32.0024 9.53116C31.7071 9.99144 32.4401 10.4168 32.7339 9.95875C34.4075 7.34955 37.7906 6.41243 40.7323 6.81572C42.4853 7.09235 44.178 7.66704 45.7371 8.51488C46.5456 8.93449 47.3298 9.39963 48.0981 9.8886C48.8292 10.3987 49.6042 10.843 50.4139 11.2161C51.7642 11.7708 53.5517 11.7275 54.4949 10.4504C54.695 10.1478 54.8215 9.80252 54.8643 9.44227C54.9071 9.08202 54.865 8.71675 54.7414 8.37567C54.6178 8.03459 54.4161 7.72716 54.1525 7.47795C53.8888 7.22874 53.5706 7.04467 53.2231 6.94046C52.9002 6.87681 52.5666 6.89427 52.2522 6.99128C51.9377 7.08829 51.6522 7.26181 51.4214 7.49629C51.1905 7.73077 51.0214 8.01888 50.9293 8.33478C50.8371 8.65069 50.8248 8.98453 50.8934 9.30636C51.1239 10.0245 51.4921 10.6908 51.9776 11.2681C53.2063 12.9965 54.807 14.4273 56.662 15.4551C58.517 16.4829 60.5789 17.0814 62.6959 17.2066C63.2409 17.2336 63.2395 16.3863 62.6959 16.3594L62.6959 16.3594Z" fill="#CCCCCC"/>
<path d="M64.6184 43.1992H62.0942V51.4929H64.6184V43.1992Z" fill="#CCCCCC"/>
<path d="M23.8063 37.4115L25.5605 35.6572L19.7967 29.8933L18.0424 31.6476L23.8063 37.4115Z" fill="#B3B3B3"/>
<path d="M94.7768 54.8408L96.531 56.595L102.295 50.8311L100.541 49.0769L94.7768 54.8408Z" fill="#B3B3B3"/>
<path d="M23.0907 126.527L24.845 128.281L30.6089 122.517L28.8546 120.763L23.0907 126.527Z" fill="#FF6584"/>
</g>
<defs>
<clipPath id="clip0_34_645">
<rect width="150" height="243.343" fill="white"/>
</clipPath>
</defs>
</svg>
